<svg width="60" height="60" viewBox="0 0 60 60" fill="none" xmlns="http://www.w3.org/2000/svg">
<g clip-path="url(#clip0_7904_515)">
<path d="M39.4412 36.1595L34.6404 36.1905V28.7619L29.8496 28.7722V38.6564L32.245 38.677L32.265 41.1429L39.4213 41.1532L39.4412 38.677L41.8267 38.6564L41.8367 36.2008L44.2321 36.1802V23.8302L41.8367 23.7992L41.8267 21.3437L39.4412 21.323L39.4213 18.8571H25.0787L25.0488 21.323L22.6733 21.3437L22.6633 23.7992L20.2679 23.8198V31.2278L17.8725 31.2484V36.1802L20.2679 36.2008V43.6087L22.6633 43.6294L22.6733 46.0849L25.0588 46.1056L25.0687 48.5714H29.8396L29.8696 51.0476H44.2121L44.2321 48.5817L46.6175 48.5611L46.6275 46.1056L49.0129 46.0849L49.0229 43.6294L51.4083 43.6087L51.4183 41.1532L53.8038 41.1325V33.7246L56.2092 33.704V26.296L53.8038 26.2754V18.8675L51.4183 18.8468L51.4083 16.3913L49.0229 16.3706L49.0129 13.9151L46.6275 13.8944L46.6175 11.4389L44.2321 11.4183L44.2021 8.95238H22.6933L22.6534 11.4286H17.8825L17.8725 13.8944L15.4871 13.9151L15.4771 16.3706L13.0817 16.3913V21.323L10.6863 21.3437V26.2754L8.29084 26.296V33.7143H3.5V26.296L5.89542 26.2754V18.8675L8.29084 18.8468V13.9151L10.6863 13.8944L10.6962 11.4389L13.0817 11.4183L13.0917 8.9627L15.4771 8.94206L15.4871 6.47619H20.2579L20.2979 4H44.2021L44.2421 6.47619H49.003L49.0229 8.94206L51.4083 8.9627L51.4183 11.4183L53.8038 11.4389L53.8137 13.8944L56.1992 13.9151L56.2092 16.3706L58.5946 16.3913V23.7992L61 23.8302V36.1802L58.5946 36.2008V43.6087L56.2092 43.6294L56.1992 46.0849L53.8137 46.1056L53.8038 48.5611L51.4183 48.5817L51.4083 51.0373L49.0229 51.0579L49.003 53.5238H44.2321L44.2021 56H27.4741L27.4442 53.5238H22.6733L22.6633 51.0579L20.2779 51.0373L20.2679 48.5817L17.8825 48.5611L17.8725 46.1056L15.4771 46.0849V38.677L13.0817 38.6564V28.7825L15.4771 28.7516V21.3437L17.8725 21.323L17.8825 18.8675L20.2679 18.8468L20.2779 16.381H25.0488L25.0787 13.9048H41.8067L41.8367 16.3706L44.2221 16.3913L44.2321 18.8468L46.6175 18.8675L46.6275 21.323L49.0129 21.3437V26.2754L51.4183 26.296V31.2278L49.0129 31.2484V38.6564L46.6275 38.677L46.6175 41.1325L44.2321 41.1532L44.2221 43.6087L41.8367 43.6294L41.8167 46.0952H29.8696L29.8396 43.6294L27.4642 43.6087L27.4542 41.1532L25.0588 41.1325V36.2008L22.6633 36.1802V31.2484L25.0588 31.2278V26.296L27.4542 26.2754L27.4741 23.8095H37.0259L37.0458 26.2754L39.4412 26.296V36.1595Z" fill="white"/>
<path d="M35.9412 36.1595L31.1404 36.1905V28.7619L26.3496 28.7722V38.6564L28.745 38.677L28.765 41.1429L35.9213 41.1532L35.9412 38.677L38.3267 38.6564L38.3367 36.2008L40.7321 36.1802V23.8302L38.3367 23.7992L38.3267 21.3437L35.9412 21.323L35.9213 18.8571H21.5787L21.5488 21.323L19.1733 21.3437L19.1633 23.7992L16.7679 23.8198V31.2278L14.3725 31.2484V36.1802L16.7679 36.2008V43.6087L19.1633 43.6294L19.1733 46.0849L21.5588 46.1056L21.5687 48.5714H26.3396L26.3696 51.0476H40.7121L40.7321 48.5817L43.1175 48.5611L43.1275 46.1056L45.5129 46.0849L45.5229 43.6294L47.9083 43.6087L47.9183 41.1532L50.3038 41.1325V33.7246L52.7092 33.704V26.296L50.3038 26.2754V18.8675L47.9183 18.8468L47.9083 16.3913L45.5229 16.3706L45.5129 13.9151L43.1275 13.8944L43.1175 11.4389L40.7321 11.4183L40.7021 8.95238H19.1933L19.1534 11.4286H14.3825L14.3725 13.8944L11.9871 13.9151L11.9771 16.3706L9.58167 16.3913V21.323L7.18625 21.3437V26.2754L4.79084 26.296V33.7143H0V26.296L2.39542 26.2754V18.8675L4.79084 18.8468V13.9151L7.18625 13.8944L7.19623 11.4389L9.58167 11.4183L9.59165 8.9627L11.9771 8.94206L11.9871 6.47619H16.7579L16.7979 4H40.7021L40.7421 6.47619H45.503L45.5229 8.94206L47.9083 8.9627L47.9183 11.4183L50.3038 11.4389L50.3137 13.8944L52.6992 13.9151L52.7092 16.3706L55.0946 16.3913V23.7992L57.5 23.8302V36.1802L55.0946 36.2008V43.6087L52.7092 43.6294L52.6992 46.0849L50.3137 46.1056L50.3038 48.5611L47.9183 48.5817L47.9083 51.0373L45.5229 51.0579L45.503 53.5238H40.7321L40.7021 56H23.9741L23.9442 53.5238H19.1733L19.1633 51.0579L16.7779 51.0373L16.7679 48.5817L14.3825 48.5611L14.3725 46.1056L11.9771 46.0849V38.677L9.58167 38.6564V28.7825L11.9771 28.7516V21.3437L14.3725 21.323L14.3825 18.8675L16.7679 18.8468L16.7779 16.381H21.5488L21.5787 13.9048H38.3067L38.3367 16.3706L40.7221 16.3913L40.7321 18.8468L43.1175 18.8675L43.1275 21.323L45.5129 21.3437V26.2754L47.9183 26.296V31.2278L45.5129 31.2484V38.6564L43.1275 38.677L43.1175 41.1325L40.7321 41.1532L40.7221 43.6087L38.3367 43.6294L38.3167 46.0952H26.3696L26.3396 43.6294L23.9642 43.6087L23.9542 41.1532L21.5588 41.1325V36.2008L19.1633 36.1802V31.2484L21.5588 31.2278V26.296L23.9542 26.2754L23.9741 23.8095H33.5259L33.5458 26.2754L35.9412 26.296V36.1595Z" fill="black"/>
</g>
<defs>
<clipPath id="clip0_7904_515">
<rect width="60" height="60" fill="white"/>
</clipPath>
</defs>
</svg>
