<svg width="600" height="315" viewBox="0 0 600 315" fill="none" xmlns="http://www.w3.org/2000/svg">
<g clip-path="url(#clip0_7909_598)">
<rect width="600" height="315" fill="white"/>
<rect width="600" height="315" fill="white"/>
<path d="M148.483 140H122.271V94.1176H125.542V136.729H148.483V140ZM155.025 133.458H151.754V107.246H155.025V133.458ZM177.966 140H174.695V133.458H171.402V130.187H174.695V107.246H177.966V140ZM158.296 136.729H155.025V133.458H158.296V136.729ZM171.402 136.729H168.131V133.458H171.402V136.729ZM168.131 140H158.296V136.729H168.131V140ZM204.2 110.517H191.094V107.246H204.2V110.517ZM191.094 113.788H187.824V110.517H191.094V113.788ZM207.494 113.788H204.2V110.517H207.494V113.788ZM187.824 133.458H184.553V113.788H187.824V133.458ZM210.765 117.059H207.494V113.788H210.765V117.059ZM210.765 133.458H207.494V130.187H210.765V133.458ZM191.094 136.729H187.824V133.458H191.094V136.729ZM207.494 136.729H204.2V133.458H207.494V136.729ZM204.2 140H191.094V136.729H204.2V140ZM217.374 113.788H214.103V107.246H217.374V113.788ZM243.586 113.788H240.315V107.246H243.586V113.788ZM220.645 120.352H217.374V113.788H220.645V120.352ZM240.315 120.352H237.044V113.788H240.315V120.352ZM223.916 126.894H220.645V120.352H223.916V126.894ZM237.044 126.894H233.751V120.352H237.044V126.894ZM227.209 133.458H223.916V126.894H227.209V133.458ZM233.751 133.458H230.48V126.894H233.751V133.458ZM230.48 140H227.209V133.458H230.48V140ZM227.209 146.542H223.916V140H227.209V146.542ZM223.916 149.813H220.645V146.542H223.916V149.813ZM220.645 153.106H214.103V149.813H220.645V153.106ZM268.207 103.953H264.936V94.1176H268.207V103.953ZM297.69 103.953H294.419V94.1176H297.69V103.953ZM271.478 107.246H268.207V103.953H271.478V107.246ZM294.419 107.246H291.148V103.953H294.419V107.246ZM274.749 110.517H271.478V107.246H274.749V110.517ZM291.148 110.517H287.878V107.246H291.148V110.517ZM278.042 113.788H274.749V110.517H278.042V113.788ZM287.878 113.788H284.584V110.517H287.878V113.788ZM284.584 120.352H278.042V113.788H284.584V120.352ZM278.042 123.623H274.749V120.352H278.042V123.623ZM287.878 123.623H284.584V120.352H287.878V123.623ZM274.749 126.894H271.478V123.623H274.749V126.894ZM291.148 126.894H287.878V123.623H291.148V126.894ZM271.478 130.187H268.207V126.894H271.478V130.187ZM294.419 130.187H291.148V126.894H294.419V130.187ZM268.207 140H264.936V130.187H268.207V140ZM297.69 140H294.419V130.187H297.69V140ZM307.548 133.458H304.277V107.246H307.548V133.458ZM330.489 140H327.218V133.458H323.925V130.187H327.218V107.246H330.489V140ZM310.819 136.729H307.548V133.458H310.819V136.729ZM323.925 136.729H320.654V133.458H323.925V136.729ZM320.654 140H310.819V136.729H320.654V140Z" fill="black"/>
<path d="M121.4 189V173.16H126.44C129.56 173.16 131.24 174.744 131.24 177.72C131.24 180.696 129.56 182.28 126.44 182.28H123.32V189H121.4ZM123.32 180.552H126.2C128.264 180.552 129.248 179.616 129.248 177.72C129.248 175.824 128.264 174.888 126.2 174.888H123.32V180.552ZM135.022 189V177.288H136.678L136.798 179.28H136.894C137.566 177.816 138.838 177 140.566 177C142.99 177 144.31 178.56 144.31 181.464V183.024H142.438V181.704C142.438 179.76 141.598 178.728 140.062 178.728C138.214 178.728 136.894 180.192 136.894 182.232V189H135.022ZM152.579 189.288C149.267 189.288 147.491 187.128 147.491 183.144C147.491 179.16 149.267 177 152.579 177C155.891 177 157.667 179.16 157.667 183.144C157.667 187.128 155.891 189.288 152.579 189.288ZM152.579 187.56C154.643 187.56 155.723 186.048 155.723 183.144C155.723 180.24 154.643 178.728 152.579 178.728C150.515 178.728 149.435 180.24 149.435 183.144C149.435 186.048 150.515 187.56 152.579 187.56ZM165.313 189.288C162.337 189.288 160.633 186.936 160.633 183.144C160.633 179.376 162.361 177 165.289 177C166.969 177 168.169 177.792 168.769 179.16H168.865V171.96H170.737V189H169.081L168.961 187.008H168.865C168.289 188.472 167.089 189.288 165.313 189.288ZM165.625 187.56C167.569 187.56 168.865 186.024 168.865 183.432V182.856C168.865 180.264 167.569 178.728 165.625 178.728C163.681 178.728 162.577 180.288 162.577 183.144C162.577 186 163.681 187.56 165.625 187.56ZM184.047 177.288V189H182.391L182.271 187.008H182.175C181.503 188.496 180.207 189.288 178.431 189.288C175.959 189.288 174.639 187.728 174.639 184.824V177.288H176.511V184.752C176.511 186.624 177.327 187.56 178.887 187.56C180.831 187.56 182.175 186.096 182.175 184.056V177.288H184.047ZM193.18 189.288C189.868 189.288 188.092 187.128 188.092 183.144C188.092 179.16 189.868 177 193.18 177C195.82 177 197.476 178.368 198.028 180.912H196.036C195.604 179.496 194.644 178.728 193.18 178.728C191.116 178.728 190.036 180.24 190.036 183.144C190.036 186.048 191.116 187.56 193.18 187.56C194.644 187.56 195.604 186.792 196.036 185.352H198.052C197.5 187.896 195.82 189.288 193.18 189.288ZM207.546 189.288C204.978 189.288 203.538 187.848 203.538 185.28V178.944H200.538V177.288H203.634L203.922 173.16H205.41V177.288H210.714V178.944H205.41V185.04C205.41 186.72 206.13 187.56 207.57 187.56C209.034 187.56 209.754 186.72 209.754 185.04V184.176H211.578V185.28C211.578 187.848 210.138 189.288 207.546 189.288ZM232.462 189.288C229.486 189.288 227.782 186.936 227.782 183.144C227.782 179.376 229.51 177 232.438 177C234.118 177 235.318 177.792 235.918 179.16H236.014V171.96H237.886V189H236.23L236.11 187.008H236.014C235.438 188.472 234.238 189.288 232.462 189.288ZM232.773 187.56C234.718 187.56 236.014 186.024 236.014 183.432V182.856C236.014 180.264 234.718 178.728 232.773 178.728C230.83 178.728 229.726 180.288 229.726 183.144C229.726 186 230.83 187.56 232.773 187.56ZM246.803 189.288C243.371 189.288 241.547 187.152 241.547 183.12C241.547 179.16 243.323 177 246.659 177C249.995 177 251.771 179.16 251.771 183.12C251.771 183.264 251.771 183.456 251.747 183.624H243.491C243.611 186.24 244.715 187.56 246.827 187.56C248.147 187.56 249.059 187.032 249.539 186.024H251.627C250.955 188.112 249.347 189.288 246.803 189.288ZM243.539 182.04H249.779C249.515 179.856 248.459 178.728 246.659 178.728C244.859 178.728 243.803 179.856 243.539 182.04ZM260.017 189.288C257.065 189.288 255.289 188.064 255.145 185.952H257.065C257.233 187.008 258.265 187.56 260.017 187.56C261.841 187.56 262.921 186.936 262.921 185.712C262.921 184.776 262.297 184.296 260.713 184.08L259.009 183.84C256.609 183.504 255.505 182.472 255.505 180.576C255.505 178.248 257.185 177 259.969 177C262.657 177 264.313 178.152 264.457 180.192H262.513C262.441 179.376 261.553 178.728 259.993 178.728C258.409 178.728 257.425 179.376 257.425 180.456C257.425 181.392 258.049 181.872 259.633 182.088L261.337 182.328C263.737 182.664 264.841 183.696 264.841 185.592C264.841 188.016 263.065 189.288 260.017 189.288ZM273.543 174.936C272.607 174.936 271.911 174.24 271.911 173.304C271.911 172.368 272.607 171.672 273.543 171.672C274.479 171.672 275.175 172.368 275.175 173.304C275.175 174.24 274.479 174.936 273.543 174.936ZM268.839 189V187.344H272.871V178.944H268.839V177.288H274.743V187.344H278.775V189H268.839ZM286.924 194.568C283.252 194.568 281.476 193.392 281.476 191.208C281.476 189.816 282.22 188.904 283.636 188.472V188.376C282.676 188.112 282.076 187.416 282.076 186.432C282.076 185.448 282.628 184.632 283.636 184.152V184.056C282.604 183.408 282.052 182.328 282.052 180.912C282.052 178.44 283.756 177 286.684 177C287.764 177 288.676 177.192 289.42 177.576L289.492 177.552C289.876 176.16 291.052 175.32 292.78 175.32H293.5V177.168H292.588C291.508 177.168 290.74 177.528 290.332 178.248C290.98 178.896 291.316 179.808 291.316 180.912C291.316 183.384 289.612 184.824 286.684 184.824C286.012 184.824 285.388 184.752 284.836 184.584C284.236 184.896 283.876 185.376 283.876 186C283.876 186.72 284.38 187.128 285.22 187.128H287.908C291.148 187.128 292.708 188.304 292.708 190.68C292.708 193.296 290.788 194.568 286.924 194.568ZM286.684 183.12C288.412 183.12 289.42 182.304 289.42 180.912C289.42 179.52 288.412 178.704 286.684 178.704C284.956 178.704 283.948 179.52 283.948 180.912C283.948 182.304 284.956 183.12 286.684 183.12ZM286.996 192.864C289.54 192.864 290.788 192.144 290.788 190.704C290.788 189.408 289.828 188.832 287.62 188.832H286.588C284.548 188.832 283.396 189.528 283.396 190.848C283.396 192.192 284.548 192.864 286.996 192.864ZM295.698 189V177.288H297.354L297.474 179.28H297.57C298.242 177.792 299.538 177 301.314 177C303.786 177 305.106 178.56 305.106 181.464V189H303.234V181.536C303.234 179.664 302.418 178.728 300.858 178.728C298.914 178.728 297.57 180.192 297.57 182.232V189H295.698ZM313.952 189.288C310.52 189.288 308.696 187.152 308.696 183.12C308.696 179.16 310.472 177 313.808 177C317.144 177 318.92 179.16 318.92 183.12C318.92 183.264 318.92 183.456 318.896 183.624H310.64C310.76 186.24 311.864 187.56 313.976 187.56C315.296 187.56 316.208 187.032 316.688 186.024H318.776C318.104 188.112 316.496 189.288 313.952 189.288ZM310.688 182.04H316.928C316.664 179.856 315.608 178.728 313.808 178.728C312.008 178.728 310.952 179.856 310.688 182.04ZM323.037 189V177.288H324.693L324.813 179.28H324.909C325.581 177.816 326.853 177 328.581 177C331.005 177 332.325 178.56 332.325 181.464V183.024H330.453V181.704C330.453 179.76 329.613 178.728 328.077 178.728C326.229 178.728 324.909 180.192 324.909 182.232V189H323.037ZM350.017 189L347.833 177.288H349.633L351.193 186.192H351.289L353.305 177.288H354.817L356.833 186.192H356.929L358.489 177.288H360.217L358.033 189H356.041L354.073 180.312H353.977L352.009 189H350.017ZM367.55 174.936C366.614 174.936 365.918 174.24 365.918 173.304C365.918 172.368 366.614 171.672 367.55 171.672C368.486 171.672 369.182 172.368 369.182 173.304C369.182 174.24 368.486 174.936 367.55 174.936ZM362.846 189V187.344H366.878V178.944H362.846V177.288H368.75V187.344H372.782V189H362.846ZM382.132 189.288C379.564 189.288 378.124 187.848 378.124 185.28V178.944H375.124V177.288H378.22L378.508 173.16H379.996V177.288H385.3V178.944H379.996V185.04C379.996 186.72 380.716 187.56 382.156 187.56C383.62 187.56 384.34 186.72 384.34 185.04V184.176H386.164V185.28C386.164 187.848 384.724 189.288 382.132 189.288ZM389.706 189V171.96H391.578V179.16H391.674C392.346 177.768 393.594 177 395.322 177C397.794 177 399.114 178.56 399.114 181.464V189H397.242V181.536C397.242 179.664 396.426 178.728 394.866 178.728C392.922 178.728 391.578 180.192 391.578 182.232V189H389.706ZM419.757 189.288C417.429 189.288 415.965 187.944 415.965 185.784C415.965 183.528 417.573 182.304 420.525 182.304H423.813V181.416C423.813 179.64 422.853 178.728 420.981 178.728C419.445 178.728 418.533 179.328 418.269 180.48H416.373C416.685 178.176 418.269 177 421.029 177C424.101 177 425.685 178.464 425.685 181.296V189H424.029L423.909 187.008H423.813C423.069 188.424 421.605 189.288 419.757 189.288ZM420.141 187.56C422.229 187.56 423.813 186.072 423.813 184.152V183.912H420.525C418.845 183.912 417.909 184.56 417.909 185.76C417.909 186.888 418.725 187.56 420.141 187.56ZM447.073 189L442.705 177.288H444.721L448.009 186.48H448.105L451.393 177.288H453.361L448.993 189H447.073ZM461.558 174.936C460.622 174.936 459.926 174.24 459.926 173.304C459.926 172.368 460.622 171.672 461.558 171.672C462.494 171.672 463.19 172.368 463.19 173.304C463.19 174.24 462.494 174.936 461.558 174.936ZM456.854 189V187.344H460.886V178.944H456.854V177.288H462.758V187.344H466.79V189H456.854ZM474.892 189.288C471.94 189.288 470.164 188.064 470.02 185.952H471.94C472.108 187.008 473.14 187.56 474.892 187.56C476.716 187.56 477.796 186.936 477.796 185.712C477.796 184.776 477.172 184.296 475.588 184.08L473.884 183.84C471.484 183.504 470.38 182.472 470.38 180.576C470.38 178.248 472.06 177 474.844 177C477.532 177 479.188 178.152 479.332 180.192H477.388C477.316 179.376 476.428 178.728 474.868 178.728C473.284 178.728 472.3 179.376 472.3 180.456C472.3 181.392 472.924 181.872 474.508 182.088L476.212 182.328C478.612 182.664 479.716 183.696 479.716 185.592C479.716 188.016 477.94 189.288 474.892 189.288ZM492.93 177.288V189H491.274L491.154 187.008H491.058C490.386 188.496 489.09 189.288 487.314 189.288C484.842 189.288 483.522 187.728 483.522 184.824V177.288H485.394V184.752C485.394 186.624 486.21 187.56 487.77 187.56C489.714 187.56 491.058 186.096 491.058 184.056V177.288H492.93ZM500.335 189.288C498.007 189.288 496.543 187.944 496.543 185.784C496.543 183.528 498.151 182.304 501.103 182.304H504.391V181.416C504.391 179.64 503.431 178.728 501.559 178.728C500.023 178.728 499.111 179.328 498.847 180.48H496.951C497.263 178.176 498.847 177 501.607 177C504.679 177 506.263 178.464 506.263 181.296V189H504.607L504.487 187.008H504.391C503.647 188.424 502.183 189.288 500.335 189.288ZM500.719 187.56C502.807 187.56 504.391 186.072 504.391 184.152V183.912H501.103C499.423 183.912 498.487 184.56 498.487 185.76C498.487 186.888 499.303 187.56 500.719 187.56ZM516.429 189.288C513.861 189.288 512.421 187.848 512.421 185.28V173.616H509.421V171.96H514.293V185.04C514.293 186.72 515.013 187.56 516.453 187.56C517.917 187.56 518.637 186.72 518.637 185.04V184.176H520.461V185.28C520.461 187.848 519.021 189.288 516.429 189.288ZM125.024 219.288C122.048 219.288 120.344 216.936 120.344 213.144C120.344 209.376 122.072 207 125 207C126.68 207 127.88 207.792 128.48 209.16H128.576V201.96H130.448V219H128.792L128.672 217.008H128.576C128 218.472 126.8 219.288 125.024 219.288ZM125.336 217.56C127.28 217.56 128.576 216.024 128.576 213.432V212.856C128.576 210.264 127.28 208.728 125.336 208.728C123.392 208.728 122.288 210.288 122.288 213.144C122.288 216 123.392 217.56 125.336 217.56ZM139.366 219.288C135.934 219.288 134.11 217.152 134.11 213.12C134.11 209.16 135.886 207 139.222 207C142.558 207 144.334 209.16 144.334 213.12C144.334 213.264 144.334 213.456 144.31 213.624H136.054C136.174 216.24 137.278 217.56 139.39 217.56C140.71 217.56 141.622 217.032 142.102 216.024H144.19C143.518 218.112 141.91 219.288 139.366 219.288ZM136.102 212.04H142.342C142.078 209.856 141.022 208.728 139.222 208.728C137.422 208.728 136.366 209.856 136.102 212.04ZM152.579 219.288C149.627 219.288 147.851 218.064 147.707 215.952H149.627C149.795 217.008 150.827 217.56 152.579 217.56C154.403 217.56 155.483 216.936 155.483 215.712C155.483 214.776 154.859 214.296 153.275 214.08L151.571 213.84C149.171 213.504 148.067 212.472 148.067 210.576C148.067 208.248 149.747 207 152.531 207C155.219 207 156.875 208.152 157.019 210.192H155.075C155.003 209.376 154.115 208.728 152.555 208.728C150.971 208.728 149.987 209.376 149.987 210.456C149.987 211.392 150.611 211.872 152.195 212.088L153.899 212.328C156.299 212.664 157.403 213.696 157.403 215.592C157.403 218.016 155.627 219.288 152.579 219.288ZM166.105 204.936C165.169 204.936 164.473 204.24 164.473 203.304C164.473 202.368 165.169 201.672 166.105 201.672C167.041 201.672 167.737 202.368 167.737 203.304C167.737 204.24 167.041 204.936 166.105 204.936ZM161.401 219V217.344H165.433V208.944H161.401V207.288H167.305V217.344H171.337V219H161.401ZM179.487 224.568C175.815 224.568 174.039 223.392 174.039 221.208C174.039 219.816 174.783 218.904 176.199 218.472V218.376C175.239 218.112 174.639 217.416 174.639 216.432C174.639 215.448 175.191 214.632 176.199 214.152V214.056C175.167 213.408 174.615 212.328 174.615 210.912C174.615 208.44 176.319 207 179.247 207C180.327 207 181.239 207.192 181.983 207.576L182.055 207.552C182.439 206.16 183.615 205.32 185.343 205.32H186.063V207.168H185.151C184.071 207.168 183.303 207.528 182.895 208.248C183.543 208.896 183.879 209.808 183.879 210.912C183.879 213.384 182.175 214.824 179.247 214.824C178.575 214.824 177.951 214.752 177.399 214.584C176.799 214.896 176.439 215.376 176.439 216C176.439 216.72 176.943 217.128 177.783 217.128H180.471C183.711 217.128 185.271 218.304 185.271 220.68C185.271 223.296 183.351 224.568 179.487 224.568ZM179.247 213.12C180.975 213.12 181.983 212.304 181.983 210.912C181.983 209.52 180.975 208.704 179.247 208.704C177.519 208.704 176.511 209.52 176.511 210.912C176.511 212.304 177.519 213.12 179.247 213.12ZM179.559 222.864C182.103 222.864 183.351 222.144 183.351 220.704C183.351 219.408 182.391 218.832 180.183 218.832H179.151C177.111 218.832 175.959 219.528 175.959 220.848C175.959 222.192 177.111 222.864 179.559 222.864ZM188.26 219V207.288H189.916L190.036 209.28H190.132C190.804 207.792 192.1 207 193.876 207C196.348 207 197.668 208.56 197.668 211.464V219H195.796V211.536C195.796 209.664 194.98 208.728 193.42 208.728C191.476 208.728 190.132 210.192 190.132 212.232V219H188.26ZM220.424 219.288C218.648 219.288 217.448 218.472 216.872 217.008H216.776L216.656 219H215V201.96H216.872V209.16H216.968C217.568 207.792 218.768 207 220.448 207C223.376 207 225.104 209.376 225.104 213.144C225.104 216.936 223.4 219.288 220.424 219.288ZM220.112 217.56C222.056 217.56 223.16 216 223.16 213.144C223.16 210.288 222.056 208.728 220.112 208.728C218.168 208.728 216.872 210.264 216.872 212.856V213.432C216.872 216.024 218.168 217.56 220.112 217.56ZM231.742 219.288C229.414 219.288 227.95 217.944 227.95 215.784C227.95 213.528 229.558 212.304 232.51 212.304H235.798V211.416C235.798 209.64 234.838 208.728 232.966 208.728C231.43 208.728 230.518 209.328 230.254 210.48H228.358C228.67 208.176 230.254 207 233.014 207C236.086 207 237.67 208.464 237.67 211.296V219H236.014L235.894 217.008H235.798C235.054 218.424 233.59 219.288 231.742 219.288ZM232.126 217.56C234.214 217.56 235.798 216.072 235.798 214.152V213.912H232.51C230.83 213.912 229.894 214.56 229.894 215.76C229.894 216.888 230.71 217.56 232.126 217.56ZM246.899 219.288C243.587 219.288 241.811 217.128 241.811 213.144C241.811 209.16 243.587 207 246.899 207C249.539 207 251.195 208.368 251.747 210.912H249.755C249.323 209.496 248.363 208.728 246.899 208.728C244.835 208.728 243.755 210.24 243.755 213.144C243.755 216.048 244.835 217.56 246.899 217.56C248.363 217.56 249.323 216.792 249.755 215.352H251.771C251.219 217.896 249.539 219.288 246.899 219.288ZM255.913 219V201.96H257.785V212.52H257.881L262.897 207.288H265.393L260.161 212.64L265.729 219H263.281L257.881 212.808H257.785V219H255.913ZM273.495 224.568C269.823 224.568 268.047 223.392 268.047 221.208C268.047 219.816 268.791 218.904 270.207 218.472V218.376C269.247 218.112 268.647 217.416 268.647 216.432C268.647 215.448 269.199 214.632 270.207 214.152V214.056C269.175 213.408 268.623 212.328 268.623 210.912C268.623 208.44 270.327 207 273.255 207C274.335 207 275.247 207.192 275.991 207.576L276.063 207.552C276.447 206.16 277.623 205.32 279.351 205.32H280.071V207.168H279.159C278.079 207.168 277.311 207.528 276.903 208.248C277.551 208.896 277.887 209.808 277.887 210.912C277.887 213.384 276.183 214.824 273.255 214.824C272.583 214.824 271.959 214.752 271.407 214.584C270.807 214.896 270.447 215.376 270.447 216C270.447 216.72 270.951 217.128 271.791 217.128H274.479C277.719 217.128 279.279 218.304 279.279 220.68C279.279 223.296 277.359 224.568 273.495 224.568ZM273.255 213.12C274.983 213.12 275.991 212.304 275.991 210.912C275.991 209.52 274.983 208.704 273.255 208.704C271.527 208.704 270.519 209.52 270.519 210.912C270.519 212.304 271.527 213.12 273.255 213.12ZM273.567 222.864C276.111 222.864 277.359 222.144 277.359 220.704C277.359 219.408 276.399 218.832 274.191 218.832H273.159C271.119 218.832 269.967 219.528 269.967 220.848C269.967 222.192 271.119 222.864 273.567 222.864ZM282.748 219V207.288H284.404L284.524 209.28H284.62C285.292 207.816 286.564 207 288.292 207C290.716 207 292.036 208.56 292.036 211.464V213.024H290.164V211.704C290.164 209.76 289.324 208.728 287.788 208.728C285.94 208.728 284.62 210.192 284.62 212.232V219H282.748ZM300.306 219.288C296.994 219.288 295.218 217.128 295.218 213.144C295.218 209.16 296.994 207 300.306 207C303.618 207 305.394 209.16 305.394 213.144C305.394 217.128 303.618 219.288 300.306 219.288ZM300.306 217.56C302.37 217.56 303.45 216.048 303.45 213.144C303.45 210.24 302.37 208.728 300.306 208.728C298.242 208.728 297.162 210.24 297.162 213.144C297.162 216.048 298.242 217.56 300.306 217.56ZM318.344 207.288V219H316.688L316.568 217.008H316.472C315.8 218.496 314.504 219.288 312.728 219.288C310.256 219.288 308.936 217.728 308.936 214.824V207.288H310.808V214.752C310.808 216.624 311.624 217.56 313.184 217.56C315.128 217.56 316.472 216.096 316.472 214.056V207.288H318.344ZM322.557 219V207.288H324.213L324.333 209.28H324.429C325.101 207.792 326.397 207 328.173 207C330.645 207 331.965 208.56 331.965 211.464V219H330.093V211.536C330.093 209.664 329.277 208.728 327.717 208.728C325.773 208.728 324.429 210.192 324.429 212.232V219H322.557ZM339.899 219.288C336.923 219.288 335.219 216.936 335.219 213.144C335.219 209.376 336.947 207 339.875 207C341.555 207 342.755 207.792 343.355 209.16H343.451V201.96H345.323V219H343.667L343.547 217.008H343.451C342.875 218.472 341.675 219.288 339.899 219.288ZM340.211 217.56C342.155 217.56 343.451 216.024 343.451 213.432V212.856C343.451 210.264 342.155 208.728 340.211 208.728C338.267 208.728 337.163 210.288 337.163 213.144C337.163 216 338.267 217.56 340.211 217.56ZM351.937 224.088L351.433 222.936C353.473 222 354.337 220.776 354.457 219.024C354.265 219.096 354.193 219.096 353.977 219.096C352.849 219.096 352.057 218.304 352.057 217.224C352.057 216.144 352.849 215.352 353.953 215.352C355.297 215.352 356.089 216.456 356.089 218.304C356.089 221.064 354.361 223.176 351.937 224.088ZM381.58 219.288C379.804 219.288 378.604 218.472 378.028 217.008H377.932L377.812 219H376.156V201.96H378.028V209.16H378.124C378.724 207.792 379.924 207 381.604 207C384.532 207 386.26 209.376 386.26 213.144C386.26 216.936 384.556 219.288 381.58 219.288ZM381.268 217.56C383.212 217.56 384.316 216 384.316 213.144C384.316 210.288 383.212 208.728 381.268 208.728C379.324 208.728 378.028 210.264 378.028 212.856V213.432C378.028 216.024 379.324 217.56 381.268 217.56ZM392.898 219.288C390.57 219.288 389.106 217.944 389.106 215.784C389.106 213.528 390.714 212.304 393.666 212.304H396.954V211.416C396.954 209.64 395.994 208.728 394.122 208.728C392.586 208.728 391.674 209.328 391.41 210.48H389.514C389.826 208.176 391.41 207 394.17 207C397.242 207 398.826 208.464 398.826 211.296V219H397.17L397.05 217.008H396.954C396.21 218.424 394.746 219.288 392.898 219.288ZM393.282 217.56C395.37 217.56 396.954 216.072 396.954 214.152V213.912H393.666C391.986 213.912 391.05 214.56 391.05 215.76C391.05 216.888 391.866 217.56 393.282 217.56ZM407.743 219.288C404.791 219.288 403.015 218.064 402.871 215.952H404.791C404.959 217.008 405.991 217.56 407.743 217.56C409.567 217.56 410.647 216.936 410.647 215.712C410.647 214.776 410.023 214.296 408.439 214.08L406.735 213.84C404.335 213.504 403.231 212.472 403.231 210.576C403.231 208.248 404.911 207 407.695 207C410.383 207 412.039 208.152 412.183 210.192H410.239C410.167 209.376 409.279 208.728 407.719 208.728C406.135 208.728 405.151 209.376 405.151 210.456C405.151 211.392 405.775 211.872 407.359 212.088L409.063 212.328C411.463 212.664 412.567 213.696 412.567 215.592C412.567 218.016 410.791 219.288 407.743 219.288ZM421.389 219.288C417.957 219.288 416.133 217.152 416.133 213.12C416.133 209.16 417.909 207 421.245 207C424.581 207 426.357 209.16 426.357 213.12C426.357 213.264 426.357 213.456 426.333 213.624H418.077C418.197 216.24 419.301 217.56 421.413 217.56C422.733 217.56 423.645 217.032 424.125 216.024H426.213C425.541 218.112 423.933 219.288 421.389 219.288ZM418.125 212.04H424.365C424.101 209.856 423.045 208.728 421.245 208.728C419.445 208.728 418.389 209.856 418.125 212.04ZM433.907 219.288C430.931 219.288 429.227 216.936 429.227 213.144C429.227 209.376 430.955 207 433.883 207C435.563 207 436.763 207.792 437.363 209.16H437.459V201.96H439.331V219H437.675L437.555 217.008H437.459C436.883 218.472 435.683 219.288 433.907 219.288ZM434.219 217.56C436.163 217.56 437.459 216.024 437.459 213.432V212.856C437.459 210.264 436.163 208.728 434.219 208.728C432.275 208.728 431.171 210.288 431.171 213.144C431.171 216 432.275 217.56 434.219 217.56ZM461.558 204.936C460.622 204.936 459.926 204.24 459.926 203.304C459.926 202.368 460.622 201.672 461.558 201.672C462.494 201.672 463.19 202.368 463.19 203.304C463.19 204.24 462.494 204.936 461.558 204.936ZM456.854 219V217.344H460.886V208.944H456.854V207.288H462.758V217.344H466.79V219H456.854ZM470.284 219V207.288H471.94L472.06 209.28H472.156C472.828 207.792 474.124 207 475.9 207C478.372 207 479.692 208.56 479.692 211.464V219H477.82V211.536C477.82 209.664 477.004 208.728 475.444 208.728C473.5 208.728 472.156 210.192 472.156 212.232V219H470.284ZM496.807 219V203.16H498.991L504.751 214.968H504.847V203.16H506.695V219H504.847L498.751 206.544H498.655V219H496.807ZM514.221 219V211.728L509.493 203.16H511.701L515.181 209.664H515.277L518.757 203.16H520.869L516.141 211.728V219H514.221ZM528.899 219.288C525.131 219.288 523.451 216.72 523.451 211.08C523.451 205.44 525.131 202.872 528.899 202.872C531.995 202.872 533.675 204.624 534.179 208.32H532.163C531.779 205.848 530.723 204.672 528.899 204.672C526.523 204.672 525.443 206.664 525.443 211.08C525.443 215.496 526.523 217.488 528.899 217.488C530.723 217.488 531.779 216.312 532.163 213.84H534.179C533.675 217.536 531.995 219.288 528.899 219.288ZM542.04 219.288C540.912 219.288 540.072 218.448 540.072 217.32C540.072 216.192 540.912 215.352 542.04 215.352C543.168 215.352 544.008 216.192 544.008 217.32C544.008 218.448 543.168 219.288 542.04 219.288Z" fill="black"/>
<path d="M119 191.664H280.02V193.152H119V191.664ZM294.09 191.664H333.875V193.152H294.09V191.664Z" fill="black"/>
<path d="M72.8995 125.687L69.7072 125.707V120.929L66.5215 120.935V127.293L68.1143 127.307L68.1276 128.893L72.8863 128.9L72.8995 127.307L74.4858 127.293L74.4924 125.714L76.0853 125.701V117.756L74.4924 117.736L74.4858 116.157L72.8995 116.143L72.8863 114.557H63.349L63.3291 116.143L61.7495 116.157L61.7429 117.736L60.15 117.75V122.515L58.5572 122.528V125.701L60.15 125.714V130.479L61.7429 130.492L61.7495 132.072L63.3357 132.085L63.3424 133.671H66.5148L66.5347 135.264H76.072L76.0853 133.678L77.6715 133.665L77.6781 132.085L79.2644 132.072L79.271 130.492L80.8572 130.479L80.8638 128.9L82.4501 128.886V124.121L84.0496 124.108V119.342L82.4501 119.329V114.564L80.8638 114.551L80.8572 112.971L79.271 112.958L79.2644 111.378L77.6781 111.365L77.6715 109.785L76.0853 109.772L76.0654 108.186H61.7628L61.7362 109.779H58.5638L58.5572 111.365L56.9709 111.378L56.9643 112.958L55.3714 112.971V116.143L53.7786 116.157V119.329L52.1857 119.342V124.114H49V119.342L50.5929 119.329V114.564L52.1857 114.551V111.378L53.7786 111.365L53.7852 109.785L55.3714 109.772L55.3781 108.192L56.9643 108.179L56.9709 106.593H60.1434L60.1699 105H76.0654L76.0919 106.593H79.2577L79.271 108.179L80.8572 108.192L80.8638 109.772L82.4501 109.785L82.4567 111.365L84.0429 111.378L84.0496 112.958L85.6358 112.971V117.736L87.2353 117.756V125.701L85.6358 125.714V130.479L84.0496 130.492L84.0429 132.072L82.4567 132.085L82.4501 133.665L80.8638 133.678L80.8572 135.258L79.271 135.271L79.2577 136.857H76.0853L76.0654 138.45H64.9419L64.922 136.857H61.7495L61.7429 135.271L60.1567 135.258L60.15 133.678L58.5638 133.665L58.5572 132.085L56.9643 132.072V127.307L55.3714 127.293V120.942L56.9643 120.922V116.157L58.5572 116.143L58.5638 114.564L60.15 114.551L60.1567 112.964H63.3291L63.349 111.371H74.4725L74.4924 112.958L76.0786 112.971L76.0853 114.551L77.6715 114.564L77.6781 116.143L79.2644 116.157V119.329L80.8638 119.342V122.515L79.2644 122.528V127.293L77.6781 127.307L77.6715 128.886L76.0853 128.9L76.0786 130.479L74.4924 130.492L74.4791 132.079H66.5347L66.5148 130.492L64.9352 130.479L64.9286 128.9L63.3357 128.886V125.714L61.7429 125.701V122.528L63.3357 122.515V119.342L64.9286 119.329L64.9419 117.743H71.2934L71.3067 119.329L72.8995 119.342V125.687Z" fill="black"/>
</g>
<defs>
<clipPath id="clip0_7909_598">
<rect width="600" height="315" fill="white"/>
</clipPath>
</defs>
</svg>
