<svg width="144" height="142" viewBox="0 0 144 142" fill="none" xmlns="http://www.w3.org/2000/svg">
<path d="M69.7598 66.4727C71.2207 56.8548 71.9512 48.5153 71.9512 41.4541L71.7686 24.4707C71.7686 16.4355 73.4121 10.3483 76.6992 6.20898C79.9863 2.06966 83.8213 0 88.2041 0C91.9782 0 95.2044 1.58268 97.8828 4.74805C100.561 7.91341 101.9 11.444 101.9 15.3398C101.9 20.6966 98.0654 28.5492 90.3955 38.8975C83.943 47.4196 78.708 57.0983 74.6904 67.9336C82.8473 65.377 92.3434 60.6898 103.179 53.8721C114.257 46.9326 122.658 43.4629 128.38 43.4629C132.641 43.4629 136.172 44.7412 138.972 47.2979C141.894 49.8545 143.354 52.959 143.354 56.6113C143.354 61.2376 141.467 65.1943 137.693 68.4814C133.919 71.6468 128.745 73.2295 122.171 73.2295C120.71 73.2295 116.936 72.9251 110.849 72.3164C105.735 71.7077 100.379 71.4033 94.7783 71.4033C88.4476 71.4033 82.1777 71.8903 75.9688 72.8643C80.7168 77.6123 88.2041 82.6647 98.4307 88.0215C116.327 97.2741 125.275 106.344 125.275 115.231C125.275 119.371 123.997 122.597 121.44 124.91C118.884 127.223 115.901 128.38 112.492 128.38C103.727 128.38 95.5088 120.223 87.8389 103.909C81.6299 90.639 76.3949 81.3864 72.1338 76.1514C70.0641 85.6475 69.0293 94.2305 69.0293 101.9C69.0293 104.579 69.2119 108.292 69.5771 113.04C69.8206 116.692 69.9424 119.127 69.9424 120.345C69.9424 125.945 68.3597 130.815 65.1943 134.954C62.029 139.093 58.0723 141.163 53.3242 141.163C49.7936 141.163 46.6891 139.763 44.0107 136.963C41.4541 134.041 40.1758 130.45 40.1758 126.188C40.1758 120.953 43.0977 114.318 48.9414 106.283C57.3418 94.9609 63.429 84.43 67.2031 74.6904C57.5853 77.4906 46.75 83.0299 34.6973 91.3086C27.2708 96.4219 21.1227 98.9785 16.2529 98.9785C11.9919 98.9785 8.21777 97.7002 4.93066 95.1436C1.64355 92.4652 0 89.1172 0 85.0996C0 80.4733 1.88704 76.5775 5.66113 73.4121C9.55697 70.2467 15.2181 68.6641 22.6445 68.6641C25.2012 68.6641 28.9144 69.0293 33.7842 69.7598C41.6976 70.7337 48.2109 71.2207 53.3242 71.2207C59.0462 71.2207 63.429 70.7946 66.4727 69.9424C57.5853 61.7855 48.3936 55.2721 38.8975 50.4023C25.1403 43.4629 18.2617 35.793 18.2617 27.3926C18.2617 23.2533 19.6618 20.027 22.4619 17.7139C25.3838 15.4007 28.5492 14.2441 31.958 14.2441C40.1149 14.2441 47.3587 21.488 53.6895 35.9756C56.0026 41.2106 58.194 45.5934 60.2637 49.124L69.7598 66.4727Z" fill="url(#paint0_radial_2074_153)"/>
<defs>
<radialGradient id="paint0_radial_2074_153" cx="0" cy="0" r="1" gradientUnits="userSpaceOnUse" gradientTransform="translate(72 46) rotate(90.1943) scale(95.1636 162.929)">
<stop stop-color="#FD8C7D"/>
<stop offset="1" stop-color="#FDC27D"/>
</radialGradient>
</defs>
</svg>
