<svg width="64" height="64" viewBox="0 0 64 64" fill="none" xmlns="http://www.w3.org/2000/svg">
<g clip-path="url(#clip0)">
<rect x="6.3" y="13.3" width="57.4" height="19.4" fill="#FBF5FB" stroke="#3A3D7C" stroke-width="0.6"/>
<path d="M15.93 21.03C15.74 20.93 15.51 20.88 15.24 20.88C14.68 20.88 14.05 21.26 13.76 21.82V20.96H12.92V26H13.76V24.09C13.76 23.32 13.9 22.72 14.18 22.29C14.46 21.86 14.79 21.64 15.17 21.64C15.38 21.64 15.57 21.69 15.76 21.78L15.93 21.03ZM21.0355 23.27C21.0355 22.6 20.8355 22.04 20.4255 21.58C20.0255 21.11 19.4655 20.88 18.7555 20.88C18.0255 20.88 17.4655 21.13 17.0655 21.64C16.6755 22.14 16.4755 22.75 16.4755 23.48C16.4755 24.21 16.6755 24.82 17.0655 25.33C17.4655 25.83 18.0255 26.08 18.7555 26.08C19.7955 26.08 20.4255 25.67 20.8955 24.68L20.1555 24.36C19.8655 25.01 19.4655 25.32 18.7555 25.32C17.8855 25.32 17.3855 24.65 17.3355 23.66H21.0355V23.27ZM18.7555 21.64C19.5255 21.64 19.9955 22.14 20.1555 22.9H17.3855C17.5455 22.13 18.0055 21.64 18.7555 21.64ZM23.0098 24.55C23.0098 23.98 23.4998 23.66 24.3498 23.66H25.2498V23.78C25.2498 24.31 25.1098 24.7 24.8298 24.95C24.5498 25.2 24.2198 25.32 23.8398 25.32C23.3098 25.32 23.0098 25.03 23.0098 24.55ZM26.0898 22.78C26.0898 21.5 25.3198 20.88 24.1498 20.88C23.1998 20.88 22.4898 21.41 22.3598 22.26L23.0998 22.43C23.2098 21.94 23.6198 21.64 24.1498 21.64C24.8798 21.64 25.2498 21.99 25.2498 22.68V22.9H24.4298C23.0198 22.9 22.1498 23.48 22.1498 24.55C22.1498 25.58 22.7998 26.08 23.7098 26.08C24.3998 26.08 24.9198 25.82 25.2898 25.29L25.4298 26H26.0898V22.78ZM29.6238 20.88C28.1838 20.88 27.3838 21.92 27.3838 23.48C27.3838 25.04 28.1838 26.08 29.6238 26.08C30.2238 26.08 30.8438 25.77 31.0938 25.38V26H31.9338V18.92H31.0938V21.56C31.0038 21.4 30.8038 21.25 30.5138 21.1C30.2238 20.95 29.9238 20.88 29.6238 20.88ZM29.7038 25.32C28.8238 25.32 28.2438 24.57 28.2438 23.48C28.2438 22.39 28.8238 21.64 29.7038 21.64C30.6138 21.64 31.1638 22.39 31.1638 23.48C31.1638 24.57 30.6138 25.32 29.7038 25.32ZM43.2654 22.45C43.2654 21.46 42.7554 20.88 41.8454 20.88C41.1254 20.88 40.5754 21.23 40.2054 21.93C40.0454 21.26 39.5454 20.88 38.8554 20.88C38.1454 20.88 37.6254 21.22 37.2854 21.89V20.96H36.4454V26H37.2854V23.93C37.2854 22.52 37.8654 21.64 38.6254 21.64C39.1654 21.64 39.4354 21.97 39.4354 22.63V26H40.2754V23.93C40.2754 22.52 40.8554 21.64 41.6154 21.64C42.1554 21.64 42.4254 21.97 42.4254 22.63V26H43.2654V22.45ZM45.241 25.32C45.691 25.83 46.271 26.08 47.001 26.08C47.731 26.08 48.311 25.83 48.751 25.32C49.201 24.81 49.421 24.19 49.421 23.48C49.421 22.77 49.201 22.16 48.751 21.65C48.311 21.14 47.731 20.88 47.001 20.88C46.271 20.88 45.691 21.14 45.241 21.65C44.801 22.16 44.581 22.77 44.581 23.48C44.581 24.19 44.801 24.81 45.241 25.32ZM45.851 22.19C46.131 21.82 46.511 21.64 47.001 21.64C47.491 21.64 47.871 21.82 48.141 22.19C48.421 22.55 48.561 22.98 48.561 23.48C48.561 23.98 48.421 24.41 48.141 24.78C47.871 25.14 47.491 25.32 47.001 25.32C46.511 25.32 46.131 25.14 45.851 24.78C45.581 24.41 45.441 23.98 45.441 23.48C45.441 22.98 45.581 22.55 45.851 22.19ZM53.6937 21.03C53.5037 20.93 53.2737 20.88 53.0037 20.88C52.4437 20.88 51.8137 21.26 51.5237 21.82V20.96H50.6837V26H51.5237V24.09C51.5237 23.32 51.6637 22.72 51.9437 22.29C52.2237 21.86 52.5537 21.64 52.9337 21.64C53.1437 21.64 53.3337 21.69 53.5237 21.78L53.6937 21.03ZM58.7992 23.27C58.7992 22.6 58.5992 22.04 58.1892 21.58C57.7892 21.11 57.2292 20.88 56.5192 20.88C55.7892 20.88 55.2292 21.13 54.8292 21.64C54.4392 22.14 54.2392 22.75 54.2392 23.48C54.2392 24.21 54.4392 24.82 54.8292 25.33C55.2292 25.83 55.7892 26.08 56.5192 26.08C57.5592 26.08 58.1892 25.67 58.6592 24.68L57.9192 24.36C57.6292 25.01 57.2292 25.32 56.5192 25.32C55.6492 25.32 55.1492 24.65 55.0992 23.66H58.7992V23.27ZM56.5192 21.64C57.2892 21.64 57.7592 22.14 57.9192 22.9H55.1492C55.3092 22.13 55.7692 21.64 56.5192 21.64Z" fill="#3A3D7C"/>
<path d="M6.71998 56.7899C6.21998 56.1299 5.72998 54.9699 4.72998 53.4799C4.22998 52.6499 2.73998 50.9999 2.24998 50.3299C1.91998 49.6699 1.91998 49.3399 2.07998 48.6699C2.24998 47.6799 3.23998 46.8499 4.39998 46.8499C5.22998 46.8499 6.05998 47.5099 6.71998 48.0099C7.04998 48.3399 7.54998 48.9999 7.87998 49.3299C8.20998 49.6599 8.20998 49.8299 8.53998 50.1599C8.86998 50.6599 9.03998 50.9899 8.86998 50.3299C8.69998 49.4999 8.53998 48.1799 8.20998 46.8499C8.03998 45.8599 7.87998 45.6899 7.70998 45.0299C7.53998 44.1999 7.37998 43.6999 7.20998 42.8799C7.03998 42.3799 6.87998 41.0599 6.70998 40.3999C6.53998 39.5699 6.53998 38.0799 7.20998 37.4199C7.70998 36.9199 8.69998 36.7599 9.35998 37.0899C10.19 37.5899 10.68 38.7499 10.85 39.2399C11.18 40.0699 11.51 41.2299 11.68 42.5499C12.01 44.2099 12.51 46.6899 12.51 47.1899C12.51 46.5299 12.34 45.3699 12.51 44.7099C12.68 44.2099 13.01 43.5499 13.67 43.3799C14.17 43.2099 14.66 43.2099 15.16 43.2099C15.66 43.3799 16.15 43.7099 16.48 44.0399C17.14 45.0299 17.14 47.1899 17.14 47.0199C17.31 46.3599 17.31 45.0299 17.64 44.3699C17.81 44.0399 18.47 43.7099 18.8 43.5399C19.3 43.3699 19.96 43.3699 20.46 43.5399C20.79 43.5399 21.45 44.0399 21.62 44.3699C21.95 44.8699 22.12 46.5199 22.28 47.1899C22.28 47.3599 22.45 46.5299 22.78 46.0299C23.44 45.0399 25.76 44.6999 25.93 47.0199C25.93 48.1799 25.93 48.0099 25.93 48.8399C25.93 49.6699 25.93 50.1599 25.93 50.8299C25.93 51.4899 25.76 52.9799 25.6 53.6499C25.43 54.1499 24.94 55.3099 24.44 55.9699C24.44 55.9699 22.62 57.9599 22.45 58.9499C22.28 59.9399 22.28 59.9399 22.28 60.6099C22.28 61.2699 22.45 62.0999 22.45 62.0999C22.45 62.0999 21.13 62.2699 20.46 62.0999C19.8 61.9299 18.97 60.7699 18.8 60.2799C18.47 59.7799 17.97 59.7799 17.64 60.2799C17.31 60.9399 16.48 62.0999 15.82 62.0999C14.66 62.2699 12.34 62.0999 10.69 62.0999C10.69 62.0999 11.02 60.4399 10.36 59.7799C9.85998 59.2799 9.02998 58.4499 8.53998 57.9599L6.71998 56.7899Z" fill="white"/>
<path d="M6.71998 56.7899C6.21998 56.1299 5.72998 54.9699 4.72998 53.4799C4.22998 52.6499 2.73998 50.9999 2.24998 50.3299C1.91998 49.6699 1.91998 49.3399 2.07998 48.6699C2.24998 47.6799 3.23998 46.8499 4.39998 46.8499C5.22998 46.8499 6.05998 47.5099 6.71998 48.0099C7.04998 48.3399 7.54998 48.9999 7.87998 49.3299C8.20998 49.6599 8.20998 49.8299 8.53998 50.1599C8.86998 50.6599 9.03998 50.9899 8.86998 50.3299C8.69998 49.4999 8.53998 48.1799 8.20998 46.8499C8.03998 45.8599 7.87998 45.6899 7.70998 45.0299C7.53998 44.1999 7.37998 43.6999 7.20998 42.8799C7.03998 42.3799 6.87998 41.0599 6.70998 40.3999C6.53998 39.5699 6.53998 38.0799 7.20998 37.4199C7.70998 36.9199 8.69998 36.7599 9.35998 37.0899C10.19 37.5899 10.68 38.7499 10.85 39.2399C11.18 40.0699 11.51 41.2299 11.68 42.5499C12.01 44.2099 12.51 46.6899 12.51 47.1899C12.51 46.5299 12.34 45.3699 12.51 44.7099C12.68 44.2099 13.01 43.5499 13.67 43.3799C14.17 43.2099 14.66 43.2099 15.16 43.2099C15.66 43.3799 16.15 43.7099 16.48 44.0399C17.14 45.0299 17.14 47.1899 17.14 47.0199C17.31 46.3599 17.31 45.0299 17.64 44.3699C17.81 44.0399 18.47 43.7099 18.8 43.5399C19.3 43.3699 19.96 43.3699 20.46 43.5399C20.79 43.5399 21.45 44.0399 21.62 44.3699C21.95 44.8699 22.12 46.5199 22.28 47.1899C22.28 47.3599 22.45 46.5299 22.78 46.0299C23.44 45.0399 25.76 44.6999 25.93 47.0199C25.93 48.1799 25.93 48.0099 25.93 48.8399C25.93 49.6699 25.93 50.1599 25.93 50.8299C25.93 51.4899 25.76 52.9799 25.6 53.6499C25.43 54.1499 24.94 55.3099 24.44 55.9699C24.44 55.9699 22.62 57.9599 22.45 58.9499C22.28 59.9399 22.28 59.9399 22.28 60.6099C22.28 61.2699 22.45 62.0999 22.45 62.0999C22.45 62.0999 21.13 62.2699 20.46 62.0999C19.8 61.9299 18.97 60.7699 18.8 60.2799C18.47 59.7799 17.97 59.7799 17.64 60.2799C17.31 60.9399 16.48 62.0999 15.82 62.0999C14.66 62.2699 12.34 62.0999 10.69 62.0999C10.69 62.0999 11.02 60.4399 10.36 59.7799C9.85998 59.2799 9.02998 58.4499 8.53998 57.9599L6.71998 56.7899Z" stroke="black" stroke-width="1.2422" stroke-linecap="round" stroke-linejoin="round"/>
<path d="M20.46 57.2794V51.6494" stroke="black" stroke-width="1.2422" stroke-linecap="round"/>
<path d="M17.1505 57.2794L16.9805 51.6494" stroke="black" stroke-width="1.2422" stroke-linecap="round"/>
<path d="M13.8398 51.6494V57.2794" stroke="black" stroke-width="1.2422" stroke-linecap="round"/>
</g>
<defs>
<clipPath id="clip0">
<rect width="64" height="64" fill="white"/>
</clipPath>
</defs>
</svg>
